#!OML:ASF H:\Terrain\Patient Classification 1\Walking\liu\liu.ASF
:FULLY-SPECIFIED
:DEGREES
81
root 18.620140 32.791401 -51.091400 8.632940 -15.994360 4.697420
lowerback -10.221740 -2.099000 -7.700680
upperback -3.140280 -2.500520 5.260360
thorax 2.774720 -1.259352 9.615480
lowerneck -44.300598 -7.979880 -23.437401
upperneck 38.515202 -9.140000 24.084400
head 20.766800 -3.130820 11.198520
rclavicle 0.000000 0.000000
rhumerus -87.457001 27.933399 -178.214005
rradius 79.999802
rwrist -44.263599
rhand -61.325600 -45.328400
rfingers 14.250040
rthumb -7.915000 -105.214401
lclavicle 0.000000 0.000000
lhumerus -55.604000 -24.253201 174.817398
lradius 51.483200
lwrist 2.178940
lhand -25.846399 -47.950199
lfingers 14.250040
lthumb 26.334400 11.178160
rfemur -43.599201 0.955096 36.118599
rtibia 124.929802
rfoot -31.593000 -24.666201
rtoes -19.912920
lfemur -33.186001 5.866180 -54.059200
ltibia 55.108398
lfoot -31.434999 18.746780
ltoes 1.710568
82
root 18.633280 32.784599 -50.868999 8.532800 -15.489580 4.781740
lowerback -10.268780 -2.279020 -7.668020
upperback -3.029900 -2.739360 5.188060
thorax 2.939400 -1.384952 9.503520
lowerneck -44.464199 -7.883540 -23.335199
upperneck 38.757000 -9.051200 24.122999
head 20.870199 -3.073620 11.220040
rclavicle -0.000000 0.000000
rhumerus -87.534599 28.032200 -178.236206
rradius 80.181396
rwrist -44.033401
rhand -61.262001 -45.083000
rfingers 14.250040
rthumb -7.853600 -104.970001
lclavicle -0.000000 0.000000
lhumerus -54.482201 -25.150600 174.455399
lradius 52.556198
lwrist 3.199040
lhand -22.225000 -46.485802
lfingers 14.250040
lthumb 29.824200 12.400760
rfemur -45.619598 1.770582 36.348999
rtibia 123.895599
rfoot -33.068401 -24.849001
rtoes -22.558001
lfemur -32.107800 5.672760 -54.258400
ltibia 54.958000
lfoot -31.716801 18.406340
ltoes -0.244170
83
root 18.647181 32.769402 -50.642200 8.202940 -14.921720 5.007480
lowerback -10.056480 -2.422000 -7.819160
upperback -3.005920 -2.927640 5.128040
thorax 2.868540 -1.478084 9.517120
lowerneck -44.710999 -7.962640 -23.351400
upperneck 39.491001 -9.133220 23.892599
head 21.186199 -3.134500 11.152400
rclavicle -0.000000 0.000000
rhumerus -87.705200 27.533199 -178.009003
rradius 80.039200
rwrist -43.458801
rhand -61.380001 -46.405998
rfingers 14.250040
rthumb -7.967520 -106.291000
lclavicle -0.000000 0.000000
lhumerus -53.604000 -26.028000 174.280807
lradius 53.756599
lwrist 3.877800
lhand -20.147800 -45.965199
lfingers 14.250040
lthumb 31.825001 12.767400
rfemur -47.328201 2.290300 36.353401
rtibia 122.745201
rfoot -34.147999 -25.186199
rtoes -21.721399
lfemur -30.763800 5.388660 -54.632198
ltibia 54.716202
lfoot -30.830999 18.562019
ltoes -1.882036
84
root 18.667021 32.736801 -50.411201 7.608780 -14.537680 5.442300
lowerback -9.803780 -2.465920 -8.128040
upperback -2.784220 -2.976800 5.036480
thorax 2.966800 -1.510070 9.595960
lowerneck -44.979599 -8.110240 -23.653000
upperneck 39.941601 -9.193780 23.700800
head 21.410000 -3.202440 11.140740
rclavicle 0.000000 -0.000000
rhumerus -87.696800 27.290199 -177.623795
rradius 79.809402
rwrist -43.471401
rhand -61.716000 -47.990398
rfingers 14.250040
rthumb -8.292080 -107.869202
lclavicle 0.000000 -0.000000
lhumerus -52.569000 -27.246201 174.325806
lradius 55.171799
lwrist 5.072020
lhand -19.971840 -46.237999
lfingers 14.250040
lthumb 31.994400 12.481000
rfemur -48.596600 2.688000 36.082401
rtibia 121.404404
rfoot -35.273399 -25.707199
rtoes -18.337660
lfemur -29.068800 4.996240 -55.262001
ltibia 54.486801
lfoot -30.882999 18.973539
ltoes -4.568900
85
root 18.683701 32.710999 -50.180801 7.529540 -14.150320 5.806440
lowerback -10.204800 -2.357940 -8.256040
upperback -2.264200 -2.806340 4.805700
thorax 3.706080 -1.453796 9.428180
lowerneck -45.817402 -8.503520 -23.760599
upperneck 39.873798 -9.596700 23.660601
head 21.600201 -3.374980 11.080840
rclavicle -0.000000 -0.000000
rhumerus -86.947403 26.891399 -177.240204
rradius 79.734200
rwrist -43.823601
rhand -62.025398 -48.161400
rfingers 14.250040
rthumb -8.590720 -108.034401
lclavicle -0.000000 -0.000000
lhumerus -50.704201 -28.856001 174.084198
lradius 56.465599
lwrist 6.409600
lhand -20.322001 -46.543800
lfingers 14.250040
lthumb 31.657200 12.202080
rfemur -50.372398 3.037640 35.835800
rtibia 119.873398
rfoot -36.150398 -25.822399
rtoes -23.251801
lfemur -27.957001 4.709780 -55.808800
ltibia 54.273800
lfoot -32.020802 18.922159
ltoes -7.010600
86
root 18.700020 32.686001 -49.946201 7.757560 -13.246000 5.896200
lowerback -10.740820 -2.468680 -8.162540
upperback -2.013700 -2.937840 4.724140
thorax 4.275360 -1.537784 9.269540
lowerneck -45.904800 -8.873740 -24.056200
upperneck 39.588402 -10.046140 23.914801
head 21.592199 -3.569480 11.144340
rclavicle 0.000000 0.000000
rhumerus -86.486198 26.440201 -176.891403
rradius 79.706802
rwrist -43.760399
rhand -61.270802 -48.758400
rfingers 14.250040
rthumb -7.862200 -108.645401
lclavicle 0.000000 0.000000
lhumerus -49.075001 -29.993200 173.892807
lradius 57.365601
lwrist 7.527880
lhand -20.598801 -46.793598
lfingers 14.250040
lthumb 31.390600 11.973280
rfemur -52.317600 3.134380 35.836601
rtibia 118.183403
rfoot -36.736198 -25.479799
rtoes -14.251660
lfemur -27.158600 4.382360 -56.027802
ltibia 53.987801
lfoot -33.077400 18.274040
ltoes -4.670400
87
root 18.719780 32.664600 -49.704601 7.437260 -12.401460 6.036040
lowerback -10.571080 -2.624980 -8.207500
upperback -2.119080 -3.152420 4.836320
thorax 4.099680 -1.639284 9.399800
lowerneck -45.033401 -8.991520 -24.708401
upperneck 39.587200 -10.108440 23.995800
head 21.459000 -3.665480 11.272340
rclavicle 0.000000 0.000000
rhumerus -87.117996 26.327801 -176.454605
rradius 79.774200
rwrist -43.604401
rhand -59.765598 -50.241199
rfingers 14.250040
rthumb -6.408500 -110.152603
lclavicle 0.000000 0.000000
lhumerus -48.483002 -31.196600 174.408401
lradius 58.137600
lwrist 8.474920
lhand -22.077999 -47.506599
lfingers 14.250040
lthumb 29.966000 11.369260
rfemur -53.589600 3.356660 35.730598
rtibia 116.349403
rfoot -37.929001 -25.641800
rtoes -14.466620
lfemur -25.684200 4.142820 -56.293999
ltibia 53.694599
lfoot -33.993999 17.782160
ltoes 0.157654
88
root 18.733700 32.659199 -49.457401 7.215740 -12.070960 6.286740
lowerback -10.826660 -2.392040 -8.206080
upperback -1.925842 -2.827680 4.650960
thorax 4.401180 -1.487438 9.224280
lowerneck -44.956200 -9.386500 -24.862400
upperneck 39.656799 -10.560740 23.737400
head 21.531200 -3.916920 11.127640
rclavicle -0.000000 0.000000
rhumerus -87.179398 25.462799 -176.028793
rradius 79.474998
rwrist -43.644798
rhand -59.561600 -50.952202
rfingers 14.250040
rthumb -6.211600 -110.866600
lclavicle -0.000000 0.000000
lhumerus -47.421200 -33.303600 174.605606
lradius 59.383801
lwrist 9.838540
lhand -22.943199 -47.956799
lfingers 14.250040
lthumb 29.132200 10.980360
rfemur -55.009602 4.034700 35.401402
rtibia 114.389999
rfoot -39.305199 -25.821600
rtoes -20.745600
lfemur -24.278601 4.252440 -56.689602
ltibia 53.366600
lfoot -34.768799 17.696020
ltoes -0.778486
89
root 18.743700 32.657799 -49.215801 7.587020 -11.483500 6.049980
lowerback -11.600700 -2.331300 -7.744080
upperback -1.877896 -2.744920 4.532800
thorax 4.861080 -1.453558 8.833280
lowerneck -44.697399 -9.693860 -24.802401
upperneck 39.681400 -11.014220 23.597601
head 21.550600 -4.143320 10.988900
rclavicle -0.000000 0.000000
rhumerus -87.221199 24.772200 -176.043396
rradius 79.112396
rwrist -43.082401
rhand -60.496399 -50.720402
rfingers 14.250040
rthumb -7.114320 -110.620399
lclavicle -0.000000 0.000000
lhumerus -46.372002 -34.684601 174.296005
lradius 60.707802
lwrist 11.356920
lhand -22.648199 -48.355598
lfingers 14.250040
lthumb 29.416599 10.560800
rfemur -56.876400 4.706640 35.588200
rtibia 112.268997
rfoot -40.471600 -25.552401
rtoes -24.594601
lfemur -23.511600 4.401640 -56.513401
ltibia 52.830601
lfoot -35.170799 17.206421
ltoes -3.821640
90
root 18.752260 32.649799 -48.981400 7.723060 -10.663200 5.818560
lowerback -11.725040 -2.710700 -7.677960
upperback -2.223260 -3.260100 4.851380
thorax 4.635440 -1.699778 9.086640
lowerneck -43.824600 -9.553920 -25.372601
upperneck 40.107201 -10.786920 23.680799
head 21.530199 -4.103260 11.169300
rclavicle -0.000000 0.000000
rhumerus -88.125801 25.355000 -176.065598
rradius 79.055000
rwrist -42.542000
rhand -60.698799 -49.645199
rfingers 14.250040
rthumb -7.309680 -109.542000
lclavicle -0.000000 0.000000
lhumerus -46.298801 -34.602402 174.461807
lradius 61.792400
lwrist 12.233980
lhand -23.108200 -48.560799
lfingers 14.250040
lthumb 28.973400 10.387740
rfemur -58.408798 5.125680 35.786800
rtibia 110.000198
rfoot -41.513802 -25.136000
rtoes -27.985001
lfemur -22.441799 4.423020 -56.289001
ltibia 52.124802
lfoot -35.776798 16.473440
ltoes -3.766240
